<?xml version="1.0" encoding="utf-8"?>
<!-- Generator: Adobe Illustrator 25.0.0, SVG Export Plug-In . SVG Version: 6.00 Build 0)  -->
<svg version="1.1" id="Слой_1" xmlns="http://www.w3.org/2000/svg" xmlns:xlink="http://www.w3.org/1999/xlink" x="0px" y="0px"
	 width="65px" height="26.2px" viewBox="0 0 65 26.2" style="enable-background:new 0 0 65 26.2;" xml:space="preserve">
<style type="text/css">
	.st0{fill:#00B400;}
</style>
<path class="st0" d="M63.7,18.4c-3.8,3.4-7.1,2.4-7.7,1.5c2.7-1.2,6.1-2.9,6-5.5c0-1.8-1.5-2.9-3.2-2.9c-1.6,0-2.9,0.7-4,2.2
	c-1.9,2.5-1.5,5.8-1.5,5.9c-0.6,0.3-1.2,0.6-1.5,0.7c-3.3,1.7-5,0.6-5.5-0.1c2.7-1.2,6.1-2.9,6-5.5c0-1.8-1.5-2.9-3.2-2.9
	c-1.6,0-2.8,0.8-4,2.2c-1.6,1.8-1.6,5.3-1.5,5.6c-2.5,1.4-3.1,1.1-3.3,1.1c-0.3,0-0.4-0.1-0.4-0.3c0-0.7,0.4-1.9,1.1-3.5
	c0.7-1.6,1.1-2.6,1.2-3c0.6-1.3-0.4-2.2-1.7-2.2c-2.5,0.5-5.4,3.6-6.9,6.2l0.4-2.6c2.9-2.6,5.1-5.5,6.3-7.3c1.2-1.8,1.9-3.5,2.1-4.9
	c0.1-1.6-0.9-3-2.6-3c-1.4,0-2.6,0.7-3.8,2c-3.3,4-4.3,10.3-4.9,15.1c-1.3,1.8-2.5,3.3-3,3.3c-0.4,0-0.6-0.3-0.6-0.8
	c0.1-1.3,0.6-4.8,1-6.3c0.1-0.6-0.3-0.9-0.9-0.9c0,0-0.9-0.1-1.6,2.2c-0.4,1.5-0.7,3.8-1.8,5c-1.1,1.4-3.1,1.5-3-0.6
	c-0.1-1.8,2-4.6,3.8-5.1c0.6-0.3,2.1-1.6,1.2-2.2c-0.2-0.1-0.4-0.1-0.7-0.1c-3.1-0.1-6.5,3.6-6.7,6.7c-1,1.5-2.2,2.7-3.7,3.6
	c-2.8,1.8-7.7,2.5-9.9-0.5C2.5,17.6,3.5,10.3,6.7,6.7c2-2.5,4.3-3.8,6.7-3.8c3.3-0.3,4.3,3.5,2.1,5.4c-0.8,0.8-1.5,1.2-3.1,1.9
	c-0.8,0.3-1.7,0.4-2,1.1c-0.2,0.5-0.1,0.9,1.1,0.9c0.1,0,0.5,0,0.9-0.1c3.5-0.6,6.9-3.2,6.9-6.8c0.1-3.4-2.3-5.1-5.5-5.1
	c-1.7,0-3.3,0.4-4.9,1.2C0.7,5.1-3.1,16.3,3,23.5c3.2,3.8,9.1,3.1,13,0.6c1.3-0.7,2.3-1.7,3.2-2.7c0.1,0.2,0.2,0.4,0.4,0.6
	c0.5,0.7,1.3,1.1,2.2,1.1s1.7-0.2,2.3-0.6c0.6-0.4,1.2-0.9,1.5-1.7v-0.1c0.2,1.4,1.1,2.2,2.5,2.2c0.5,0,1.4-0.8,3-2.9
	c0,0.2,0,0.3,0,0.5c0,0.8,0.1,1.4,0.3,1.8c0.2,0.8,1.5,0.8,1.9,0.3c0.2-0.2,0.4-0.7,0.7-1.5c0.5-1.6,3-4.6,4.4-5.5
	c0.3-0.2,0.4-0.3,0.5-0.3c0.1,0,0.1,0.1,0.1,0.2c0,0.1-0.3,0.8-0.8,2.2c-0.5,1.4-0.8,2.4-0.8,3.2c-0.1,1.2,0.6,2,1.6,2.1
	c1.3,0.2,3.3-0.7,5.3-1.8c0.2,0.3,0.4,0.6,0.7,0.8c0.9,0.8,2.1,1.2,3.4,1.2c1.1,0,2.5-0.1,5.6-2.1c1.7,2.4,5.4,2.3,7.8,0.9
	c1.2-0.7,2.1-1.4,2.7-2.2C65.6,18.1,64.7,17.6,63.7,18.4z M35.9,7.3c1.1-3,2.2-4.5,3.2-4.5c0.5,0,0.7,0.2,0.7,0.7c0,1-0.5,2.3-1.6,4
	s-2.4,3.7-3.7,5C34.7,10.9,35.3,8.9,35.9,7.3z M47.1,15.2c0.7-0.8,1.4-1.3,2.1-1.3c0.7,0,1.1,0.3,1.1,0.9c0,1.1-1.4,2.6-4.2,3.6
	C46.1,17.5,46.4,16.1,47.1,15.2z M56.8,15c0.7-0.8,1.4-1.3,2.1-1.3c0.7,0,1.1,0.3,1.1,0.9c0,1.1-1.4,2.6-4.2,3.6
	C55.7,17.3,56.1,15.8,56.8,15z"/>
</svg>
